<?xml version="1.0" encoding="UTF-8" standalone="no"?>
<svg
   xmlns:dc="http://purl.org/dc/elements/1.1/"
   xmlns:cc="http://creativecommons.org/ns#"
   xmlns:rdf="http://www.w3.org/1999/02/22-rdf-syntax-ns#"
   xmlns:svg="http://www.w3.org/2000/svg"
   xmlns="http://www.w3.org/2000/svg"
   xmlns:sodipodi="http://sodipodi.sourceforge.net/DTD/sodipodi-0.dtd"
   xmlns:inkscape="http://www.inkscape.org/namespaces/inkscape"
   version="1.0"
   width="196.000000pt"
   height="196.000000pt"
   viewBox="0 0 196.000000 196.000000"
   preserveAspectRatio="xMidYMid meet"
   id="svg8"
   sodipodi:docname="hexagon.svg"
   inkscape:export-filename="/home/paulatto/SSHFS/naquite/anharmonic_website/assets/images/hexagon.png"
   inkscape:export-xdpi="7.48"
   inkscape:export-ydpi="7.48"
   inkscape:version="1.0.2 (e86c870879, 2021-01-15)">
  <defs
     id="defs12">
    <filter
       style="color-interpolation-filters:sRGB;"
       inkscape:label="Blur"
       id="filter849">
      <feGaussianBlur
         stdDeviation="2 2"
         result="blur"
         id="feGaussianBlur847" />
    </filter>
  </defs>
  <sodipodi:namedview
     pagecolor="#ffffff"
     bordercolor="#666666"
     borderopacity="1"
     objecttolerance="10"
     gridtolerance="10"
     guidetolerance="10"
     inkscape:pageopacity="0"
     inkscape:pageshadow="2"
     inkscape:window-width="1524"
     inkscape:window-height="919"
     id="namedview10"
     showgrid="false"
     inkscape:zoom="1.9346225"
     inkscape:cx="167.50241"
     inkscape:cy="120.85705"
     inkscape:window-x="212"
     inkscape:window-y="67"
     inkscape:window-maximized="0"
     inkscape:current-layer="svg8" />
  <metadata
     id="metadata2">
Created by potrace 1.11, written by Peter Selinger 2001-2013
<rdf:RDF>
  <cc:Work
     rdf:about="">
    <dc:format>image/svg+xml</dc:format>
    <dc:type
       rdf:resource="http://purl.org/dc/dcmitype/StillImage" />
  </cc:Work>
</rdf:RDF>
</metadata>
  <path
     sodipodi:type="star"
     style="fill:#ffffff;fill-opacity:1;stroke:#4e4e4e;stroke-width:15.4337;stroke-miterlimit:4;stroke-dasharray:none;stroke-opacity:1;filter:url(#filter849);stop-color:#000000"
     id="path845"
     sodipodi:sides="6"
     sodipodi:cx="92.938148"
     sodipodi:cy="93.230217"
     sodipodi:r1="79.240784"
     sodipodi:r2="68.624535"
     sodipodi:arg1="1.0471976"
     sodipodi:arg2="1.5707963"
     inkscape:flatsided="true"
     inkscape:rounded="0.06"
     inkscape:randomized="0"
     d="m 132.55854,161.85475 c -4.11748,2.37722 -75.123315,2.37722 -79.240787,0 -4.117471,-2.37723 -39.620388,-63.87009 -39.620388,-68.624537 0,-4.754447 35.502923,-66.247306 39.620395,-68.62453 4.117472,-2.377223 75.12331,-2.377219 79.24078,4e-6 4.11748,2.377224 39.62039,63.870087 39.62039,68.624534 0,4.754447 -35.50292,66.247309 -39.62039,68.624529 z"
     transform="matrix(1.0594377,0,0,1.0749095,-1.7037006,5.3331541)" />
  <path
     sodipodi:type="star"
     style="fill:#ffffff;fill-opacity:1;stroke:#c5c5c5;stroke-width:15.4337;stroke-miterlimit:4;stroke-dasharray:none;stroke-opacity:1;stop-color:#000000"
     id="path843"
     sodipodi:sides="6"
     sodipodi:cx="89.938148"
     sodipodi:cy="85.730217"
     sodipodi:r1="79.240784"
     sodipodi:r2="68.624535"
     sodipodi:arg1="1.0471976"
     sodipodi:arg2="1.5707963"
     inkscape:flatsided="true"
     inkscape:rounded="0.06"
     inkscape:randomized="0"
     d="m 129.55854,154.35475 c -4.11748,2.37722 -75.123315,2.37722 -79.240787,0 -4.117471,-2.37723 -39.620388,-63.87009 -39.620388,-68.624537 0,-4.754447 35.502923,-66.247306 39.620395,-68.62453 4.117472,-2.377223 75.12331,-2.377219 79.24078,4e-6 4.11748,2.377224 39.62039,63.870087 39.62039,68.624534 0,4.754447 -35.50292,66.247309 -39.62039,68.624529 z"
     transform="matrix(1.0594377,0,0,1.0749095,-1.7037006,5.3331541)" />
  <ellipse
     style="fill:#ffffff;fill-opacity:1;stroke:#c4c4c4;stroke-width:17.4075;stroke-miterlimit:4;stroke-dasharray:none;stroke-opacity:1;stop-color:#000000"
     id="path851"
     cx="93.964096"
     cy="48.909332"
     rx="4.707829"
     ry="6.5516987" />
  <ellipse
     style="fill:#ffffff;fill-opacity:1;stroke:#c4c4c4;stroke-width:17.4075;stroke-miterlimit:4;stroke-dasharray:none;stroke-opacity:1;stop-color:#000000"
     id="ellipse855"
     cx="13.796124"
     cy="89.520744"
     rx="4.707829"
     ry="6.5516987"
     transform="rotate(-30)" />
  <ellipse
     style="fill:#ffffff;fill-opacity:1;stroke:#c4c4c4;stroke-width:17.4075;stroke-miterlimit:4;stroke-dasharray:none;stroke-opacity:1;stop-color:#000000"
     id="ellipse857"
     cx="123.89604"
     cy="45.599083"
     rx="4.707829"
     ry="6.5516987"
     transform="rotate(45)" />
  <ellipse
     style="fill:#ffffff;fill-opacity:1;stroke:#c4c4c4;stroke-width:17.4075;stroke-miterlimit:4;stroke-dasharray:none;stroke-opacity:1;stop-color:#000000"
     id="ellipse859"
     cx="93.535393"
     cy="143.0356"
     rx="4.707829"
     ry="6.5516987" />
  <ellipse
     style="fill:#ffffff;fill-opacity:1;stroke:#c4c4c4;stroke-width:17.4075;stroke-miterlimit:4;stroke-dasharray:none;stroke-opacity:1;stop-color:#000000"
     id="ellipse861"
     cx="7.7432947"
     cy="179.95955"
     rx="4.707829"
     ry="6.5516987"
     transform="rotate(-45)" />
  <ellipse
     style="fill:#ffffff;fill-opacity:1;stroke:#c4c4c4;stroke-width:17.4075;stroke-miterlimit:4;stroke-dasharray:none;stroke-opacity:1;stop-color:#000000"
     id="ellipse863"
     cx="129.75909"
     cy="-77.241508"
     rx="4.707829"
     ry="6.5516987"
     transform="rotate(60)" />
  <path
     sodipodi:type="star"
     style="fill:#aaaaaa;fill-opacity:1;stroke:#e5e5e5;stroke-width:15.4337;stroke-miterlimit:4;stroke-dasharray:none;stroke-opacity:1;stop-color:#000000"
     id="path853"
     sodipodi:sides="6"
     sodipodi:cx="89.938148"
     sodipodi:cy="85.730217"
     sodipodi:r1="79.240784"
     sodipodi:r2="68.624535"
     sodipodi:arg1="1.0471976"
     sodipodi:arg2="1.5707963"
     inkscape:flatsided="true"
     inkscape:rounded="0.06"
     inkscape:randomized="0"
     d="m 129.55854,154.35475 c -4.11748,2.37722 -75.123315,2.37722 -79.240787,0 -4.117471,-2.37723 -39.620388,-63.87009 -39.620388,-68.624537 0,-4.754447 35.502923,-66.247306 39.620395,-68.62453 4.117472,-2.377223 75.12331,-2.377219 79.24078,4e-6 4.11748,2.377224 39.62039,63.870087 39.62039,68.624534 0,4.754447 -35.50292,66.247309 -39.62039,68.624529 z"
     transform="matrix(0.3545019,0.20467177,-0.20766075,0.35967897,79.49972,48.242223)" />
</svg>
